<svg xmlns="http://www.w3.org/2000/svg" width="98.445" height="98.445" viewBox="0 0 98.445 98.445">
  <g id="MDI_face-recognition" data-name="MDI / face-recognition" opacity="0.18">
    <g id="Boundary" transform="translate(0 0)" fill="#adadad" stroke="rgba(0,0,0,0)" stroke-width="1" opacity="0">
      <rect width="98.445" height="98.445" stroke="none"/>
      <rect x="0.5" y="0.5" width="97.445" height="97.445" fill="none"/>
    </g>
    <path id="Path_face-recognition" data-name="Path / face-recognition" d="M36.917,48.2a5.127,5.127,0,1,0,5.127,5.127A5.127,5.127,0,0,0,36.917,48.2m24.611,0a5.127,5.127,0,1,0,5.127,5.127A5.127,5.127,0,0,0,61.528,48.2M49.222,8.2A41.019,41.019,0,1,0,90.241,49.222,41.019,41.019,0,0,0,49.222,8.2m0,73.834A32.815,32.815,0,0,1,16.407,49.222a16.9,16.9,0,0,1,0-3.528A41.224,41.224,0,0,0,37.983,23.668,40.957,40.957,0,0,0,71.455,41.019a41.11,41.11,0,0,0,9.229-1.066A32.849,32.849,0,0,1,49.222,82.037M0,8.2A8.2,8.2,0,0,1,8.2,0H24.611V8.2H8.2V24.611H0V8.2M98.445,90.241a8.2,8.2,0,0,1-8.2,8.2H73.834v-8.2H90.241V73.834h8.2V90.241M8.2,98.445a8.2,8.2,0,0,1-8.2-8.2V73.834H8.2V90.241H24.611v8.2H8.2M90.241,0a8.2,8.2,0,0,1,8.2,8.2V24.611h-8.2V8.2H73.834V0Z" transform="translate(0 0)" fill="#adadad"/>
  </g>
</svg>
