   <svg xmlns="http://www.w3.org/2000/svg" width="20.8" height="20.575" viewBox="0 0 20.8 20.575">
                                <g id="icon" transform="translate(-90.498 -7.125)" opacity="0.32">
                                    <path
                                        id="path"
                                        d="M14.291,21.855a.945.945,0,0,0,.945.945h5.2A2.361,2.361,0,0,0,22.8,20.433V12.4a4.41,4.41,0,0,0-1.413-3.053L13.013,2.225H11.788L3.413,9.343A4.409,4.409,0,0,0,2,12.4v8.036A2.363,2.363,0,0,0,4.364,22.8h5.2a.945.945,0,0,0,.945-.945V16.182h3.782Zm-9.927-.945a.472.472,0,0,1-.473-.476V12.4a2.559,2.559,0,0,1,.747-1.612l7.762-6.6,2.068,1.758,5.694,4.84a2.567,2.567,0,0,1,.747,1.612v8.036a.47.47,0,0,1-.47.476H16.182V15.236a.945.945,0,0,0-.945-.945H9.564a.945.945,0,0,0-.945.945v5.673Z"
                                        transform="translate(88.498 4.9)"
                                        fill="#fff"
                                    />
                                </g>
                            </svg>