<svg xmlns="http://www.w3.org/2000/svg" width="19.909" height="19.909" viewBox="0 0 19.909 19.909">
                    <path id="Icon_feather-message-circle" data-name="Icon feather-message-circle" stroke="#faf6f6" d="M22.409,12.957a8.338,8.338,0,0,1-.9,3.781,8.457,8.457,0,0,1-7.561,4.676,8.337,8.337,0,0,1-3.781-.9L4.5,22.409l1.89-5.671a8.337,8.337,0,0,1-.9-3.781A8.457,8.457,0,0,1,10.171,5.4a8.337,8.337,0,0,1,3.781-.9h.5a8.437,8.437,0,0,1,7.959,7.959Z" fill="none" transform="translate(-3.5 -3.5)" stroke-linecap="round" stroke-linejoin="round" stroke-width="2" opacity="0.4"/>
                </svg>